<svg width="17" height="8" viewBox="0 0 17 8" fill="none" xmlns="http://www.w3.org/2000/svg">
<path d="M0.62561 1.63781C0.554019 1.5284 0.502379 1.40402 0.473689 1.27188C0.444998 1.13973 0.439829 1.00247 0.458482 0.868052C0.477135 0.733635 0.519237 0.604743 0.582345 0.488864C0.645452 0.372985 0.728307 0.272426 0.826097 0.193028C0.923888 0.11363 1.03467 0.0569751 1.152 0.0263529C1.26933 -0.00426938 1.39087 -0.00824827 1.50958 0.014647C1.62828 0.0375422 1.74178 0.0868554 1.84347 0.159723C1.94517 0.23259 2.03303 0.32756 2.10197 0.439117C2.37834 0.873603 2.8047 1.28857 3.35652 1.64808C4.53197 2.41433 6.16107 2.86423 7.91288 2.86423C9.66561 2.86423 11.2947 2.41536 12.4702 1.64808C13.022 1.28857 13.4483 0.873603 13.7247 0.439117C13.7936 0.32756 13.8815 0.23259 13.9832 0.159723C14.0849 0.0868554 14.1984 0.0375422 14.3171 0.014647C14.4358 -0.00824827 14.5573 -0.00426938 14.6747 0.0263529C14.792 0.0569751 14.9028 0.11363 15.0006 0.193028C15.0984 0.272426 15.1812 0.372985 15.2443 0.488864C15.3074 0.604743 15.3495 0.733635 15.3682 0.868052C15.3868 1.00247 15.3817 1.13973 15.353 1.27188C15.3243 1.40402 15.2727 1.5284 15.2011 1.63781C14.7647 2.32497 14.1429 2.92894 13.3792 3.42711C11.9138 4.38236 9.97197 4.91854 7.91288 4.91854C5.85379 4.91854 3.91288 4.38236 2.44743 3.42711C1.68379 2.92894 1.06197 2.32497 0.62561 1.63781Z" fill="black"/>
<path d="M9.09115 4.405C9.09115 4.13258 8.99537 3.87132 8.82488 3.67869C8.6544 3.48606 8.42317 3.37784 8.18206 3.37784C7.94095 3.37784 7.70972 3.48606 7.53924 3.67869C7.36875 3.87132 7.27297 4.13258 7.27297 4.405V6.97288C7.27297 7.2453 7.36875 7.50656 7.53924 7.69919C7.70972 7.89182 7.94095 8.00004 8.18206 8.00004C8.42317 8.00004 8.6544 7.89182 8.82488 7.69919C8.99537 7.50656 9.09115 7.2453 9.09115 6.97288V4.405ZM4.11842 4.15643C4.1802 3.89626 4.32996 3.67392 4.53544 3.53732C4.74091 3.40071 4.98566 3.36077 5.21695 3.4261C5.44824 3.49144 5.64756 3.65681 5.77196 3.8866C5.89637 4.11638 5.93591 4.39219 5.88206 4.6546L5.42751 6.70891C5.3992 6.84058 5.34811 6.96463 5.27718 7.07389C5.20626 7.18316 5.11689 7.27549 5.01425 7.34556C4.9116 7.41564 4.79769 7.46207 4.67909 7.48219C4.56049 7.50231 4.43954 7.49572 4.3232 7.46279C4.20687 7.42986 4.09745 7.37125 4.00125 7.29033C3.90505 7.20941 3.82397 7.10779 3.76269 6.99131C3.7014 6.87484 3.66112 6.74581 3.64416 6.61167C3.6272 6.47752 3.6339 6.34091 3.66388 6.20971L4.11842 4.15643ZM11.7912 4.15643C11.7294 3.89626 11.5796 3.67392 11.3741 3.53732C11.1687 3.40071 10.9239 3.36077 10.6926 3.4261C10.4613 3.49144 10.262 3.65681 10.1376 3.8866C10.0132 4.11638 9.97366 4.39219 10.0275 4.6546L10.4821 6.70891C10.5104 6.84058 10.5615 6.96463 10.6324 7.07389C10.7033 7.18316 10.7927 7.27549 10.8953 7.34556C10.998 7.41564 11.1119 7.46207 11.2305 7.48219C11.3491 7.50231 11.47 7.49572 11.5864 7.46279C11.7027 7.42986 11.8121 7.37125 11.9083 7.29033C12.0045 7.20941 12.0856 7.10779 12.1469 6.99131C12.2082 6.87484 12.2485 6.74581 12.2654 6.61167C12.2824 6.47752 12.2757 6.34091 12.2457 6.20971L11.7912 4.15643ZM14.1139 1.62449C14.03 1.52639 13.9297 1.44814 13.8188 1.3943C13.7079 1.34047 13.5886 1.31214 13.4679 1.31095C13.3472 1.30977 13.2275 1.33576 13.1157 1.3874C13.004 1.43905 12.9025 1.51532 12.8172 1.61176C12.7318 1.7082 12.6643 1.82289 12.6186 1.94912C12.5729 2.07535 12.5499 2.21061 12.5509 2.34699C12.552 2.48338 12.5771 2.61816 12.6247 2.74348C12.6723 2.86879 12.7416 2.98214 12.8284 3.07689L14.6466 5.1312C14.8181 5.3183 15.0477 5.42183 15.2861 5.41949C15.5244 5.41715 15.7524 5.30913 15.921 5.11868C16.0895 4.92824 16.1851 4.67062 16.1872 4.4013C16.1893 4.13198 16.0977 3.87252 15.9321 3.6788L14.1139 1.62449ZM1.88933 1.65941C1.96968 1.5596 2.06664 1.47864 2.17467 1.42116C2.28271 1.36368 2.39971 1.33081 2.51899 1.32442C2.63827 1.31803 2.7575 1.33824 2.86986 1.38391C2.98223 1.42959 3.08553 1.49982 3.17388 1.5906C3.26222 1.68137 3.33388 1.79093 3.38475 1.91299C3.43562 2.03506 3.46471 2.16726 3.47037 2.30203C3.47603 2.4368 3.45813 2.57151 3.41771 2.69847C3.37729 2.82543 3.31513 2.94215 3.23479 3.04196L1.58206 5.09627C1.4198 5.29786 1.1933 5.41836 0.952402 5.43127C0.711503 5.44418 0.475933 5.34843 0.297514 5.16509C0.119096 4.98175 0.0124442 4.72584 0.00102155 4.45366C-0.0104011 4.18148 0.0743408 3.91531 0.236605 3.71372L1.88933 1.65941Z" fill="black"/>
</svg>
