<svg width="19" height="14" viewBox="0 0 19 14" fill="none" xmlns="http://www.w3.org/2000/svg">
<path fill-rule="evenodd" clip-rule="evenodd" d="M9.01489 14C13.9119 14 18.0149 11.692 18.0149 8.5C18.0149 5.308 13.9119 3 9.01489 3C4.11789 3 0.0148926 5.308 0.0148926 8.5C0.0148926 11.692 4.11789 14 9.01489 14ZM9.01489 5C12.9549 5 16.0149 6.722 16.0149 8.5C16.0149 10.278 12.9549 12 9.01489 12C5.07489 12 2.01489 10.278 2.01489 8.5C2.01489 6.722 5.07489 5 9.01489 5Z" fill="#F9E6E8"/>
<path d="M8.01493 1C8.01493 0.734784 8.12028 0.48043 8.30782 0.292893C8.49535 0.105357 8.74971 0 9.01493 0C9.28014 0 9.5345 0.105357 9.72203 0.292893C9.90957 0.48043 10.0149 0.734784 10.0149 1V4C10.0149 4.26522 9.90957 4.51957 9.72203 4.70711C9.5345 4.89464 9.28014 5 9.01493 5C8.74971 5 8.49535 4.89464 8.30782 4.70711C8.12028 4.51957 8.01493 4.26522 8.01493 4V1ZM12.0349 1.304C12.0945 1.05168 12.2497 0.832347 12.4679 0.692269C12.686 0.552191 12.9501 0.502316 13.2043 0.55316C13.4585 0.604005 13.6831 0.751596 13.8306 0.964806C13.9781 1.17802 14.037 1.44018 13.9949 1.696L13.4949 4.196C13.4354 4.44832 13.2801 4.66765 13.062 4.80773C12.8438 4.94781 12.5798 4.99768 12.3256 4.94684C12.0713 4.896 11.8468 4.7484 11.6993 4.53519C11.5518 4.32198 11.4929 4.05982 11.5349 3.804L12.0349 1.304ZM5.99492 1.304C5.93536 1.05168 5.78013 0.832347 5.56197 0.692269C5.34381 0.552191 5.07978 0.502316 4.82556 0.55316C4.57133 0.604005 4.34679 0.751596 4.19929 0.964806C4.05179 1.17802 3.99286 1.44018 4.03492 1.696L4.53492 4.196C4.59449 4.44832 4.74972 4.66765 4.96788 4.80773C5.18603 4.94781 5.45007 4.99768 5.70429 4.94684C5.95852 4.896 6.18306 4.7484 6.33056 4.53519C6.47806 4.32198 6.53699 4.05982 6.49492 3.804L5.99492 1.304ZM1.87192 2.486C1.80643 2.36937 1.7182 2.26706 1.61246 2.18514C1.50672 2.10322 1.38562 2.04334 1.25633 2.00905C1.12703 1.97476 0.992176 1.96676 0.859736 1.98553C0.727296 2.00429 0.599966 2.04943 0.485284 2.11828C0.370601 2.18713 0.270897 2.27829 0.192073 2.38636C0.113249 2.49443 0.0569078 2.61721 0.0263842 2.74745C-0.0041395 2.87768 -0.00822515 3.01271 0.0143692 3.14455C0.0369635 3.27639 0.0857785 3.40236 0.157925 3.515L1.65792 6.015C1.72428 6.13008 1.8129 6.23079 1.91861 6.31124C2.02432 6.39169 2.145 6.45027 2.2736 6.48356C2.40221 6.51685 2.53615 6.52419 2.66762 6.50514C2.79909 6.48609 2.92544 6.44104 3.03931 6.37262C3.15317 6.30419 3.25226 6.21377 3.33079 6.10662C3.40932 5.99948 3.46571 5.87776 3.49668 5.74858C3.52764 5.61939 3.53256 5.48534 3.51114 5.35423C3.48972 5.22313 3.44239 5.09761 3.37192 4.985L1.87192 2.486ZM16.1579 2.486C16.2944 2.25858 16.5156 2.09467 16.7729 2.03035C17.0302 1.96602 17.3025 2.00655 17.5299 2.143C17.7573 2.27945 17.9212 2.50066 17.9856 2.75796C18.0499 3.01526 18.0094 3.28758 17.8729 3.515L16.3729 6.015C16.2363 6.24256 16.015 6.40653 15.7575 6.47086C15.5 6.53518 15.2275 6.49459 14.9999 6.358C14.7724 6.22141 14.6084 6.00002 14.5441 5.74254C14.4797 5.48505 14.5203 5.21256 14.6569 4.985L16.1579 2.486Z" fill="#F9E6E8"/>
<path fill-rule="evenodd" clip-rule="evenodd" d="M9.01489 11.5C9.94315 11.5 10.8334 11.1313 11.4898 10.4749C12.1461 9.8185 12.5149 8.92826 12.5149 8C12.5149 7.07174 12.1461 6.1815 11.4898 5.52513C10.8334 4.86875 9.94315 4.5 9.01489 4.5C8.08663 4.5 7.1964 4.86875 6.54002 5.52513C5.88364 6.1815 5.51489 7.07174 5.51489 8C5.51489 8.92826 5.88364 9.8185 6.54002 10.4749C7.1964 11.1313 8.08663 11.5 9.01489 11.5ZM9.01489 6.5C9.41272 6.5 9.79425 6.65804 10.0756 6.93934C10.3569 7.22064 10.5149 7.60218 10.5149 8C10.5149 8.39782 10.3569 8.77936 10.0756 9.06066C9.79425 9.34196 9.41272 9.5 9.01489 9.5C8.61707 9.5 8.23554 9.34196 7.95423 9.06066C7.67293 8.77936 7.51489 8.39782 7.51489 8C7.51489 7.60218 7.67293 7.22064 7.95423 6.93934C8.23554 6.65804 8.61707 6.5 9.01489 6.5Z" fill="#F9E6E8"/>
</svg>
